<svg width="16" height="16" viewBox="0 0 16 16" fill="none" xmlns="http://www.w3.org/2000/svg">
<rect x="0.5" y="0.5" width="15" height="15" rx="2.5" stroke="#031C3B"/>
<path d="M4.8999 11.0806C4.31982 11.0806 3.8221 10.9893 3.40674 10.8066C2.99495 10.624 2.67985 10.3608 2.46143 10.0171C2.243 9.66976 2.13379 9.2526 2.13379 8.76562V4.60303C2.13379 4.49919 2.18034 4.4222 2.27344 4.37207C2.36654 4.31836 2.51156 4.2915 2.7085 4.2915H3.03076C3.2277 4.2915 3.37093 4.31836 3.46045 4.37207C3.55355 4.4222 3.6001 4.49919 3.6001 4.60303V8.66895C3.6001 8.89095 3.65381 9.08968 3.76123 9.26514C3.87223 9.44059 4.0262 9.57845 4.22314 9.67871C4.42008 9.77539 4.64567 9.82373 4.8999 9.82373C5.15413 9.82373 5.37972 9.77539 5.57666 9.67871C5.77718 9.57845 5.93294 9.44059 6.04395 9.26514C6.15495 9.08968 6.21045 8.89095 6.21045 8.66895V4.60303C6.21045 4.49919 6.25521 4.4222 6.34473 4.37207C6.43783 4.31836 6.58285 4.2915 6.77979 4.2915H7.09668C7.29362 4.2915 7.43685 4.31836 7.52637 4.37207C7.61947 4.4222 7.66602 4.49919 7.66602 4.60303V8.76562C7.66602 9.2526 7.5568 9.66976 7.33838 10.0171C7.11995 10.3608 6.80306 10.624 6.3877 10.8066C5.97591 10.9893 5.47998 11.0806 4.8999 11.0806ZM8.88525 11.0161C8.49495 11.0161 8.2998 10.9463 8.2998 10.8066C8.2998 10.7673 8.31234 10.71 8.3374 10.6348L10.4429 4.49561C10.493 4.35954 10.6738 4.2915 10.9854 4.2915H11.4795C11.791 4.2915 11.9718 4.35954 12.022 4.49561L14.1274 10.6348C14.1453 10.7064 14.1543 10.7637 14.1543 10.8066C14.1543 10.8783 14.1149 10.932 14.0361 10.9678C13.9609 11 13.841 11.0161 13.6763 11.0161H13.2573C13.1069 11.0161 12.9852 11.0018 12.8921 10.9731C12.8026 10.9409 12.7471 10.889 12.7256 10.8174L12.3389 9.65186H10.0884L9.70166 10.8174C9.66227 10.9499 9.51546 11.0161 9.26123 11.0161H8.88525ZM11.9307 8.38965L11.3882 6.69238C11.356 6.60645 11.3273 6.50798 11.3022 6.39697C11.2808 6.28597 11.2611 6.18034 11.2432 6.08008H11.2056L11.1841 6.19824C11.1483 6.40951 11.1071 6.57422 11.0605 6.69238L10.4966 8.38965H11.9307Z" fill="#031C3B"/>
</svg>
